<svg width="48" height="48" viewBox="0 0 48 48" fill="none" xmlns="http://www.w3.org/2000/svg">
<path d="M14.8642 34.8273L21.784 27.2156C22.6056 26.3118 24.0383 26.3491 24.8118 27.2944L31.0073 34.8668C31.5415 35.5197 31.077 36.5 30.2333 36.5H15.6041C14.736 36.5 14.2802 35.4697 14.8642 34.8273Z" fill="white" fill-opacity="0.4"/>
<path d="M26.5968 27.093C26.9414 27.398 27.4741 27.3686 27.7236 26.982C28.1585 26.308 28.4426 25.5442 28.5518 24.7428C28.6987 23.665 28.5227 22.5678 28.046 21.59C27.5694 20.6122 26.8135 19.7977 25.8739 19.2495C24.9343 18.7013 23.8533 18.444 22.7675 18.5102C21.6817 18.5764 20.64 18.9631 19.774 19.6213C18.9079 20.2796 18.2566 21.1799 17.9022 22.2083C17.5478 23.2368 17.5064 24.3472 17.7831 25.3992C17.9889 26.1814 18.3636 26.9051 18.8771 27.5212C19.1717 27.8747 19.7042 27.8392 20.0091 27.4946C20.3141 27.15 20.2728 26.6274 20.0021 26.2553C19.7233 25.872 19.5165 25.4383 19.3947 24.9753C19.2018 24.242 19.2307 23.468 19.4777 22.7512C19.7247 22.0343 20.1787 21.4068 20.7823 20.9479C21.386 20.4891 22.1121 20.2196 22.8689 20.1735C23.6257 20.1273 24.3792 20.3067 25.0341 20.6888C25.689 21.0709 26.2159 21.6386 26.5482 22.3202C26.8804 23.0017 27.0031 23.7665 26.9007 24.5178C26.836 24.9922 26.6834 25.4477 26.4532 25.8621C26.2297 26.2643 26.2522 26.7881 26.5968 27.093Z" fill="white" fill-opacity="0.4"/>
<path d="M31.8216 31.7175C32.1755 32.0307 32.719 31.9994 33.0072 31.6249C34.3349 29.9003 35.1924 27.8545 35.4877 25.6882C35.8215 23.2386 35.4215 20.7449 34.3382 18.5227C33.2549 16.3004 31.5369 14.4493 29.4016 13.2033C27.2662 11.9574 24.8093 11.3727 22.3416 11.5232C19.8739 11.6736 17.5063 12.5524 15.538 14.0484C13.5698 15.5445 12.0894 17.5906 11.284 19.928C10.4787 22.2654 10.3845 24.7891 11.0134 27.1801C11.5697 29.2945 12.6693 31.221 14.1966 32.7716C14.5282 33.1083 15.0714 33.0734 15.3847 32.7195C15.6979 32.3656 15.6621 31.827 15.3342 31.4867C14.0585 30.1631 13.1387 28.5316 12.6686 26.7446C12.1258 24.6811 12.2071 22.5029 12.9022 20.4855C13.5973 18.4681 14.875 16.7022 16.5737 15.411C18.2725 14.1198 20.3159 13.3613 22.4458 13.2315C24.5756 13.1017 26.696 13.6063 28.5391 14.6816C30.3821 15.7569 31.8648 17.3546 32.7998 19.2726C33.7348 21.1906 34.08 23.3428 33.7918 25.457C33.5423 27.2878 32.8275 29.019 31.722 30.4877C31.4378 30.8653 31.4677 31.4043 31.8216 31.7175Z" fill="white" fill-opacity="0.4"/>
<path d="M29.4349 29.6051C29.8663 29.9869 30.5308 29.9496 30.863 29.479C31.7396 28.2373 32.3085 26.799 32.5151 25.283C32.7689 23.4213 32.4649 21.5262 31.6416 19.8372C30.8182 18.1483 29.5126 16.7414 27.8897 15.7945C26.2668 14.8477 24.3996 14.4033 22.5242 14.5176C20.6487 14.6319 18.8493 15.2998 17.3534 16.4368C15.8576 17.5738 14.7325 19.1288 14.1204 20.9053C13.5083 22.6817 13.4367 24.5997 13.9147 26.4168C14.304 27.8965 15.0434 29.2551 16.0643 30.3811C16.4512 30.8078 17.1153 30.7641 17.4971 30.3328C17.8789 29.9014 17.832 29.2464 17.4585 28.8079C16.7398 27.9642 16.2163 26.9665 15.9321 25.8862C15.5591 24.4681 15.6149 22.9712 16.0926 21.5848C16.5703 20.1985 17.4484 18.9849 18.6158 18.0976C19.7831 17.2102 21.1874 16.689 22.6511 16.5998C24.1147 16.5106 25.5719 16.8574 26.8384 17.5963C28.105 18.3353 29.1239 19.4332 29.7665 20.7513C30.409 22.0694 30.6463 23.5484 30.4482 25.0013C30.2973 26.1082 29.899 27.162 29.2881 28.0868C28.9706 28.5674 29.0036 29.2233 29.4349 29.6051Z" fill="white" fill-opacity="0.4"/>
</svg>
