<svg width="34" height="20" viewBox="0 0 34 20" fill="none" xmlns="http://www.w3.org/2000/svg">
<g clip-path="url(#clip0_6_263)">
<path d="M16.9516 2.30717L16.9516 17.693C16.9516 19.244 18.6406 20.2047 19.9738 19.4121L32.6243 11.8901C33.9132 11.1237 33.9315 9.2641 32.658 8.47246L20.0075 0.608598C18.6752 -0.219566 16.9516 0.73848 16.9516 2.30717Z" fill="white"/>
<path d="M0.801105 2.30717L0.801104 17.693C0.801104 19.244 2.49008 20.2047 3.82325 19.4121L16.4738 11.8901C17.7627 11.1237 17.781 9.2641 16.5075 8.47246L3.85697 0.608598C2.52471 -0.219566 0.801105 0.73848 0.801105 2.30717Z" fill="white"/>
<path d="M-14.0484 2.30717L-14.0484 17.693C-14.0484 19.244 -12.3594 20.2047 -11.0262 19.4121L1.62432 11.8901C2.9132 11.1237 2.93155 9.2641 1.65804 8.47246L-10.9925 0.608598C-12.3248 -0.219566 -14.0484 0.73848 -14.0484 2.30717Z" fill="white" fill-opacity="0.2"/>
</g>
<defs>
<clipPath id="clip0_6_263">
<rect width="32.8011" height="19.3921" fill="white" transform="translate(33.6022 19.696) rotate(-180)"/>
</clipPath>
</defs>
</svg>
