<svg width="47" height="47" viewBox="0 0 47 47" fill="none" xmlns="http://www.w3.org/2000/svg">
<path opacity="0.01" d="M18 16.5063V31.4937C18 32.6425 19.2437 33.3672 20.2527 32.8064L33.0702 25.6832C34.3008 24.9993 34.3122 23.2437 33.0905 22.5441L20.2696 15.2031C19.2604 14.6253 18 15.349 18 16.5063Z" fill="white"/>
<path d="M12 10C12 8.89543 12.8954 8 14 8H19C20.1046 8 21 8.89543 21 10V37C21 38.1046 20.1046 39 19 39H14C12.8954 39 12 38.1046 12 37V10Z" fill="white"/>
<path d="M26 10C26 8.89543 26.8954 8 28 8H33C34.1046 8 35 8.89543 35 10V37C35 38.1046 34.1046 39 33 39H28C26.8954 39 26 38.1046 26 37V10Z" fill="white"/>
</svg>
