<svg width="10" height="15" viewBox="0 0 10 15" fill="none" xmlns="http://www.w3.org/2000/svg">
<path d="M8.78505 14.3702C9.38288 14.3702 9.81951 13.935 9.81951 13.3423V1.07681C9.81951 0.484131 9.38288 0.00802612 8.77045 0.00802612C8.36938 0.00802612 8.07629 0.175827 7.63651 0.595249L4.27837 3.74028C4.22506 3.78556 4.16661 3.80965 4.0921 3.80965H1.81241C0.641818 3.80965 0 4.46528 0 5.70524V8.68618C0 9.93269 0.641818 10.5832 1.81241 10.5832H4.09066C4.16372 10.5832 4.22361 10.6029 4.27692 10.6482L7.63651 13.8239C8.03902 14.2061 8.37528 14.3702 8.78505 14.3702Z" fill="white" fill-opacity="0.74"/>
</svg>
