<svg width="23" height="16" viewBox="0 0 23 16" fill="none" xmlns="http://www.w3.org/2000/svg">
<path d="M8.78361 15.1851C9.38288 15.1851 9.81807 14.7499 9.81807 14.1573V1.89169C9.81807 1.29901 9.38288 0.822906 8.77045 0.822906C8.3613 0.822906 8.06971 0.990707 7.63651 1.41013L4.27034 4.55516C4.22361 4.60044 4.15858 4.62453 4.08552 4.62453H1.81241C0.635235 4.62453 0 5.28016 0 6.52012V9.50105C0 10.7476 0.635235 11.3981 1.81241 11.3981H4.08407C4.15714 11.3981 4.22217 11.4178 4.26889 11.4631L7.63651 14.6388C8.03244 15.021 8.3687 15.1851 8.78361 15.1851Z" fill="white" fill-opacity="0.74"/>
<path d="M12.677 11.5579C13.0085 11.7772 13.4552 11.7037 13.7009 11.3515C14.3465 10.49 14.7318 9.26483 14.7318 7.99599C14.7318 6.72711 14.3465 5.50851 13.7009 4.63754C13.4552 4.2883 13.0085 4.20673 12.677 4.4341C12.2858 4.6907 12.2159 5.16294 12.5211 5.61207C12.9651 6.24281 13.2171 7.10074 13.2171 7.99599C13.2171 8.89117 12.9586 9.74113 12.5211 10.3799C12.2225 10.8342 12.2858 11.2946 12.677 11.5579Z" fill="white" fill-opacity="0.74"/>
<path d="M15.8856 13.704C16.2463 13.9336 16.6907 13.8454 16.9407 13.4811C17.9858 12.0044 18.5923 10.0282 18.5923 7.99599C18.5923 5.96374 17.9923 3.97438 16.9407 2.50945C16.6907 2.14655 16.2463 2.0584 15.8856 2.28802C15.5076 2.52631 15.4537 2.99615 15.7313 3.41203C16.5862 4.65859 17.079 6.30031 17.079 7.99599C17.079 9.69167 16.573 11.3188 15.7313 12.5785C15.4603 12.9944 15.5076 13.4657 15.8856 13.704Z" fill="white" fill-opacity="0.74"/>
<path d="M19.1117 15.8764C19.4584 16.1089 19.9269 16.0069 20.1755 15.6251C21.5921 13.5129 22.438 10.8821 22.438 8.00031C22.438 5.11334 21.5723 2.49436 20.1755 0.377008C19.9269 -0.0128663 19.4584 -0.106802 19.1117 0.12571C18.7329 0.369141 18.6797 0.834647 18.9413 1.24765C20.1713 3.11658 20.9365 5.43609 20.9365 8.00031C20.9365 10.5579 20.1713 12.8921 18.9413 14.7545C18.6797 15.1674 18.7329 15.6315 19.1117 15.8764Z" fill="white" fill-opacity="0.74"/>
</svg>
